<svg data-v-2cb57da0="" version="1.0" xmlns="http://www.w3.org/2000/svg" xmlns:xlink="http://www.w3.org/1999/xlink" width="100%" height="100%" viewBox="0 0 340.000000 250.000000" preserveAspectRatio="xMidYMid meet" color-interpolation-filters="sRGB" style="margin: auto;"><rect data-v-2cb57da0="" x="0" y="0" width="100%" height="100%" fill="none" fill-opacity="1" class="background"/>  <g data-v-2cb57da0="" fill="#FFFFFF" class="basesvg" transform="translate(52.739990234375,102.86249923706055)"><g fill-rule="" class="tp-name"><g transform="scale(1.1)"><g><g filter="url(#text-effect-stroke-shadow-eLy4Lb5Ufl6WAZJXVP_aN)" stroke="#000000" stroke-width="11.5" stroke-linecap="round" stroke-linejoin="round" paint-order="stroke" data-gra-ignore-stroke="true"><path d="M8-27.25Q11.1-27.25 13.3-25.05L13.3-25.05Q15.5-22.85 15.5-19.75L15.5-19.75Q15.5-16.65 13.3-14.45L13.3-14.45Q11.1-12.25 8-12.25L8-12.25Q4.9-12.25 2.7-14.45L2.7-14.45Q0.5-16.65 0.5-19.75L0.5-19.75Q0.5-22.85 2.7-25.05L2.7-25.05Q4.9-27.25 8-27.25L8-27.25ZM8-17.75Q8.85-17.75 9.4-18.35L9.4-18.35Q10-18.95 10-19.75L10-19.75Q10-20.6 9.4-21.15L9.4-21.15Q8.85-21.75 8-21.75L8-21.75Q7.2-21.75 6.6-21.15L6.6-21.15Q6-20.6 6-19.75L6-19.75Q6-18.95 6.6-18.35L6.6-18.35Q7.2-17.75 8-17.75L8-17.75ZM25.45-25.05L18.75-25.05 18.75-29.1 15.4-29.1 15.4-32.85 18.75-32.85 18.75-36.45 25.45-36.45 25.45-32.85 30-32.85 30-36.45 36.75-36.45 36.75-32.85 40.1-32.85 40.1-29.1 36.75-29.1 36.75-25.05 30-25.05 30-29.1 25.45-29.1 25.45-25.05ZM36.6-20.5Q40.3-16.8 40.3-11.6L40.3-11.6Q40.3-6.35 36.6-2.75L36.6-2.75Q33 0.95 27.75 0.95L27.75 0.95Q22.55 0.95 18.85-2.75L18.85-2.75Q15.2-6.4 15.2-11.6L15.2-11.6Q15.2-16.75 18.85-20.5L18.85-20.5Q22.6-24.15 27.75-24.15L27.75-24.15Q32.95-24.15 36.6-20.5L36.6-20.5ZM27.75-5.3Q30.35-5.3 32.15-7.15L32.15-7.15Q34-9 34-11.6L34-11.6Q34-14.2 32.15-16.05L32.15-16.05Q30.35-17.9 27.75-17.9L27.75-17.9Q25.15-17.9 23.3-16.05L23.3-16.05Q21.45-14.2 21.45-11.6L21.45-11.6Q21.45-9 23.3-7.15L23.3-7.15Q25.15-5.3 27.75-5.3L27.75-5.3ZM24.75-16.35L30.7-16.35 30.7-13.5 32.95-13.5 32.95-9.75 30.7-9.7 30.7-6.85 24.75-6.85 24.75-9.7 22.55-9.75 22.55-13.5 24.75-13.5 24.75-16.35ZM51.8-27.25Q54.9-27.25 57.1-25.05L57.1-25.05Q59.3-22.85 59.3-19.75L59.3-19.75Q59.3-16.65 57.1-14.45L57.1-14.45Q54.9-12.25 51.8-12.25L51.8-12.25Q48.7-12.25 46.5-14.45L46.5-14.45Q44.3-16.65 44.3-19.75L44.3-19.75Q44.3-22.85 46.5-25.05L46.5-25.05Q48.7-27.25 51.8-27.25L51.8-27.25ZM51.8-17.75Q52.65-17.75 53.2-18.35L53.2-18.35Q53.8-18.95 53.8-19.75L53.8-19.75Q53.8-20.6 53.2-21.15L53.2-21.15Q52.65-21.75 51.8-21.75L51.8-21.75Q51-21.75 50.4-21.15L50.4-21.15Q49.8-20.6 49.8-19.75L49.8-19.75Q49.8-18.95 50.4-18.35L50.4-18.35Q51-17.75 51.8-17.75L51.8-17.75ZM69.25-25.05L62.55-25.05 62.55-29.1 59.2-29.1 59.2-32.85 62.55-32.85 62.55-36.45 69.25-36.45 69.25-32.85 73.8-32.85 73.8-36.45 80.55-36.45 80.55-32.85 83.9-32.85 83.9-29.1 80.55-29.1 80.55-25.05 73.8-25.05 73.8-29.1 69.25-29.1 69.25-25.05ZM80.4-20.5Q84.1-16.8 84.1-11.6L84.1-11.6Q84.1-6.35 80.4-2.75L80.4-2.75Q76.8 0.95 71.55 0.95L71.55 0.95Q66.35 0.95 62.65-2.75L62.65-2.75Q59-6.4 59-11.6L59-11.6Q59-16.75 62.65-20.5L62.65-20.5Q66.4-24.15 71.55-24.15L71.55-24.15Q76.75-24.15 80.4-20.5L80.4-20.5ZM71.55-5.3Q74.15-5.3 75.95-7.15L75.95-7.15Q77.8-9 77.8-11.6L77.8-11.6Q77.8-14.2 75.95-16.05L75.95-16.05Q74.15-17.9 71.55-17.9L71.55-17.9Q68.95-17.9 67.1-16.05L67.1-16.05Q65.25-14.2 65.25-11.6L65.25-11.6Q65.25-9 67.1-7.15L67.1-7.15Q68.95-5.3 71.55-5.3L71.55-5.3ZM68.55-16.35L74.5-16.35 74.5-13.5 76.75-13.5 76.75-9.75 74.5-9.7 74.5-6.85 68.55-6.85 68.55-9.7 66.35-9.75 66.35-13.5 68.55-13.5 68.55-16.35Z" transform="translate(-0.5, 39)"/></g><defs><filter id="text-effect-stroke-shadow-eLy4Lb5Ufl6WAZJXVP_aN" filterUnits="objectBoundingBox" width="2" height="2" x="-0.2" y="-0.2"><feDropShadow dx="1.9" dy="3.8" stdDeviation="0" flood-color="#FF00FF" flood-opacity="1"/></filter></defs></g><g transform="translate(86.5999984741211,0)"><g transform="scale(1)"><g filter="url(#text-effect-stroke-shadow-eLy4Lb5Ufl6WAZJXVP_aN)" stroke="#000000" stroke-width="11.5" stroke-linecap="round" stroke-linejoin="round" paint-order="stroke" data-gra-ignore-stroke="true" fill="#00FFFF"><path d="M25.05-19.8L39.35-19.8 39.35-16.05 3.1-16.05 3.1-19.8 17.55-19.8 17.55-23 4.2-23 4.2-26.75 17.55-26.75 17.55-30 3.8-30 3.8-33.75 17.55-33.75 17.55-36.6 25.05-36.6 25.05-33.75 38.65-33.75 38.65-30 25.05-30 25.05-26.75 38.2-26.75 38.2-23 25.05-23 25.05-19.8ZM16.9-14.8L24.05-14.8 24.05-3.1 26.6-3.1 26.6 0.65 16.9 0.65 16.9-14.8ZM7.85 0.55L2.5-3.2 10.3-14.4 15.7-10.65 7.85 0.55ZM34.7 0.3L24.75-10.85 29.35-14.95 39.3-3.8 34.7 0.3ZM37.15-14.75Q38.3-14.75 39.1-13.95L39.1-13.95Q39.9-13.15 39.9-12L39.9-12Q39.9-10.9 39.1-10.05L39.1-10.05Q38.3-9.25 37.15-9.25L37.15-9.25Q36.05-9.25 35.2-10.05L35.2-10.05Q34.4-10.9 34.4-12L34.4-12Q34.4-13.15 35.2-13.95L35.2-13.95Q36.05-14.75 37.15-14.75L37.15-14.75ZM77.65-25.3L77.65-23.25 85.45-23.25 85.45-19.5 62.35-19.5 62.35-23.25 70.15-23.25 70.15-25.3 63.2-25.3 63.2-29.05 70.15-29.05 70.15-31.05 62.65-31.05 62.65-34.8 70.15-34.8 70.15-36.8 77.65-36.8 77.65-34.8 85.15-34.8 85.15-31.05 77.65-31.05 77.65-29.05 84.6-29.05 84.6-25.3 77.65-25.3ZM70.35 0.85L63.15 0.85 63.15-17.5 84.65-17.5 84.65 0.85 77.45 0.85 77.45-13.75 70.35-13.75 70.35-11.75 76-11.75 76-8 70.35-8 70.35-6 76-6 76-2.25 70.35-2.25 70.35 0.85ZM58.3 0.8L50.8 0.8 50.8-36.15 58.3-36.15 58.3 0.8ZM50.35-13.9L46.9-13.9 48.6-28.25 50.35-13.9ZM62.2-13.9L58.7-13.9 60.45-28.25 62.2-13.9ZM100.45-15.3L100.45-2.5 129.1-2.5 129.1 1.25 92.45 1.25 92.45-27.45 116.85-27.45 116.85-15.3 100.45-15.3ZM108.85-19.05L108.85-23.7 100.45-23.7 100.45-19.05 108.85-19.05ZM109.7-10.75L120.75-10.75 120.75-32 92.45-32 92.45-39 100.45-39 100.45-35.75 128.75-35.75 128.75-7 109.7-7 109.7-10.75Z" transform="translate(-2.5, 39)"/></g><defs><filter id="text-effect-stroke-shadow-eLy4Lb5Ufl6WAZJXVP_aN" filterUnits="objectBoundingBox" width="2" height="2" x="-0.2" y="-0.2"><feDropShadow dx="1.9" dy="3.8" stdDeviation="0" flood-color="#FF00FF" flood-opacity="1"/></filter></defs></g></g></g></g> <!----></g><defs v-gra="od"/></svg>