<svg data-v-2cb57da0="" version="1.0" xmlns="http://www.w3.org/2000/svg" width="100%" height="100%"
     viewBox="0 0 340.000000 250.000000" preserveAspectRatio="xMidYMid meet" color-interpolation-filters="sRGB"
     style="margin: auto;">
    <rect data-v-2cb57da0="" x="0" y="0" width="100%" height="100%" fill="none" fill-opacity="1" class="background"/>
    <g data-v-2cb57da0="" class="iconmbgsvg" transform="translate(95,57.51390075683594)">
        <g fill="#cd8c2a" hollow-target="text">
            <g mask="url(#f35e0522-4e30-4764-8169-52a0531d5571)">
                <g>
                    <rect fill="#cd8c2a" fill-opacity="0" stroke-width="2" x="0" y="0" width="150"
                          height="134.97219572768012" class="image-rect"/>
                    <svg x="0" y="0" width="150" height="134.97219572768012" filtersec="colorsb8145539518"
                         class="image-svg-svg primary" style="overflow: visible;">
                        <svg xmlns="http://www.w3.org/2000/svg" viewBox="0 0 116.3463134765625 104.69013977050781">
                            <title>资源 13</title>
                            <path d="M82.2 41.1A41.1 41.1 0 1 1 41.1 0a41.1 41.1 0 0 1 41.1 41.1z" fill="#cd8c2a"
                                  opacity=".8"/>
                            <path d="M25.18 66.73c-.1-.8-.6-1.83-2.42-2.25a2.65 2.65 0 0 0-2.5.58c-1.67 1.53-1.7 5.44-1.55 7.71a84.42 84.42 0 0 1-2.93-9.51c2.37-.93 6.63-4.5 6.6-7.29 0-.8-.39-1.89-2.14-2.5a2.64 2.64 0 0 0-2.56.28C15.91 55 15.4 58.69 15.27 61a68.68 68.68 0 0 1-1.4-9.82c2.55-.3 7.51-2.6 8.21-5.26.2-.77.12-1.92-1.41-3a2.63 2.63 0 0 0-2.53-.41c-2.17.82-3.67 4.56-4.37 6.7A51 51 0 0 1 14.71 37a.38.38 0 0 0-.3-.45.38.38 0 0 0-.44.29 50.54 50.54 0 0 0-1 8.83c-.54-2.19-1.53-5-3.22-5.89a2.63 2.63 0 0 0-2.56.09c-1.65.86-1.87 2-1.77 2.79.4 2.79 5.11 5.71 7.58 6.34a67.91 67.91 0 0 0 1.3 11.1c-1.21-2-3.38-4.94-5.55-5.23a2.62 2.62 0 0 0-2.38 1c-1.25 1.28-1.07 2.42-.7 3.13 1.15 2.21 5.63 3.35 8.37 3.35h.75a85.71 85.71 0 0 0 2.6 9c-1.58-1.65-4.45-4.27-6.7-4.08a2.63 2.63 0 0 0-2.12 1.45c-.93 1.61-.51 2.68 0 3.3 1.07 1.28 3.53 1.77 5.84 1.77a13.25 13.25 0 0 0 3.68-.48 70.5 70.5 0 0 0 2.91 6.8.4.4 0 0 0 .34.2.37.37 0 0 0 .17 0 .38.38 0 0 0 .16-.5c0-.07-1-1.93-2.25-5 2.29-1.28 6.11-5.32 5.76-8.08zm-7.06-12.37a1.73 1.73 0 0 1 1-.34 2.66 2.66 0 0 1 .83.15c1.09.39 1.63 1 1.64 1.81 0 2.11-3.31 5.24-5.66 6.38.07-1.68.3-6.63 2.19-8zm.28-11.14a2 2 0 0 1 .62-.11 2.16 2.16 0 0 1 1.23.43c.95.67 1.31 1.38 1.1 2.18-.53 2-4.59 4.18-7.15 4.65.61-2.14 2.19-6.37 4.2-7.15zM6.34 58.65c-.39-.73-.19-1.51.59-2.37a2 2 0 0 1 1.47-.73h.26c2.32.32 4.87 4.57 5.68 6-2.62.16-7.03-1.03-8-2.9zM9.15 71.5a2 2 0 0 1 .07-2.44A1.9 1.9 0 0 1 10.75 68h.19c2.32 0 5.58 3.45 6.66 4.68-2.52.64-7.1.44-8.45-1.18zM6.2 42.6c-.11-.83.33-1.49 1.37-2a2.32 2.32 0 0 1 1-.29 1.69 1.69 0 0 1 .81.21c2.08 1.09 3 5.95 3.29 7.61-2.44-.82-6.2-3.45-6.47-5.53zm13.34 31.21c-.23-2.22-.35-6.75 1.23-8.2a1.74 1.74 0 0 1 1.23-.47 2.77 2.77 0 0 1 .61.08c1.13.25 1.73.78 1.84 1.6.25 2.09-2.7 5.59-4.91 6.99zm45.37 30.88A51.16 51.16 0 0 1 24.53 85.1a.38.38 0 0 1 .07-.53.37.37 0 0 1 .52.06 50.64 50.64 0 1 0-7-50.66.39.39 0 0 1-.49.21.37.37 0 0 1-.2-.49 51.4 51.4 0 1 1 47.52 71z"
                                  fill="#1c085d"/>
                        </svg>
                    </svg> <!---->
                </g>
            </g>
            <g transform="translate(46.48114013671875,30.696136474609375)">
                <g data-gra="path-name" fill-rule="" class="tp-name">
                    <g transform="scale(1)">
                        <g>
                            <path d="M16.34 3.2L16.34 3.2Q17.22 3.64 18.56 3.02 19.9 2.4 19.82 1.6L19.82 1.6Q19.7 0.64 19.94 0.44L19.94 0.44Q20.42 0.08 24.7 0.08L24.7 0.08Q24.94 0.08 26.51 0.08L26.51 0.08 27.55 0.08Q32.51 0.08 33.03 0.36L33.03 0.36Q33.35 0.52 33.27 1.28L33.27 1.28Q33.23 1.44 33.23 1.52L33.23 1.52Q33.15 2.36 33.69 2.54 34.23 2.72 35.51 2.24L35.51 2.24Q36.76 1.8 36.96 1.44 37.16 1.08 37.08-0.52L37.08-0.52Q36.92-3.8 36.86-9.83 36.8-15.86 36.92-16.3L36.92-16.3Q37.08-16.98 38.08-17.5L38.08-17.5Q38.32-17.66 38.22-18 38.12-18.34 37.62-18.86 37.12-19.38 36.28-20.02L36.28-20.02Q35.23-20.82 34.91-20.8 34.59-20.78 33.87-19.9L33.87-19.9Q33.79-19.78 33.63-19.62L33.63-19.62Q33.15-19.02 32.43-18.9 31.71-18.78 28.15-18.78L28.15-18.78Q27.07-18.78 26.43-18.78L26.43-18.78Q20.14-18.78 19.9-18.86L19.9-18.86Q19.86-18.86 17.94-19.68 16.02-20.5 15.9-20.5 15.78-20.5 15.98-18.46L15.98-18.46Q15.98-18.34 16.02-18.02L16.02-18.02Q16.22-15.86 16.2-9.41 16.18-2.96 15.94 1L15.94 1Q15.9 2.36 15.96 2.7 16.02 3.04 16.34 3.2ZM24.1-1.24L24.1-1.24Q23.78-1.08 22.22-1.08L22.22-1.08Q22.06-1.08 21.82-1.08L21.82-1.08Q20.26-1.08 20.02-1.46 19.78-1.84 19.78-4.2L19.78-4.2Q19.78-4.72 19.78-5 19.78-5.29 19.78-5.81L19.78-5.81Q19.78-8.17 20.02-8.55 20.26-8.93 21.82-8.93L21.82-8.93Q22.06-8.93 22.22-8.93 22.38-8.93 22.62-8.93L22.62-8.93Q24.18-8.93 24.42-8.55 24.66-8.17 24.66-5.81L24.66-5.81Q24.66-5.29 24.66-5L24.66-5Q24.66-2.4 24.58-1.9 24.5-1.4 24.1-1.24ZM32.75-1.2L32.75-1.2Q32.43-1.08 30.75-1.08L30.75-1.08Q30.59-1.08 30.31-1.08L30.31-1.08Q28.71-1.08 28.43-1.44L28.43-1.44Q28.11-1.8 28.11-4.36L28.11-4.36Q28.11-4.76 28.11-5L28.11-5Q28.11-5.25 28.11-5.65L28.11-5.65Q28.11-8.13 28.37-8.53 28.63-8.93 30.27-8.93L30.27-8.93Q30.55-8.93 30.71-8.93 30.87-8.93 31.15-8.93L31.15-8.93Q32.75-8.93 33.03-8.57L33.03-8.57Q33.35-8.21 33.35-5.65L33.35-5.65Q33.35-5.25 33.35-5L33.35-5Q33.35-2.4 33.27-1.9 33.19-1.4 32.75-1.2ZM24.18-10.21L24.18-10.21Q23.94-10.05 22.22-10.07 20.5-10.09 20.26-10.25L20.26-10.25Q19.9-10.41 19.84-10.89 19.78-11.37 19.78-13.85L19.78-13.85Q19.78-14.13 19.78-14.65L19.78-14.65Q19.78-17.02 20.1-17.34L20.1-17.34Q20.34-17.62 21.74-17.62L21.74-17.62Q22.06-17.62 22.22-17.62L22.22-17.62Q22.38-17.62 22.7-17.62L22.7-17.62Q24.18-17.62 24.42-17.26 24.66-16.9 24.66-14.65L24.66-14.65Q24.66-14.13 24.66-13.85L24.66-13.85Q24.66-11.37 24.6-10.89 24.54-10.41 24.18-10.21ZM32.87-10.29L32.87-10.29Q32.63-10.09 30.71-10.09L30.71-10.09Q30.51-10.09 30.19-10.09L30.19-10.09Q28.67-10.09 28.39-10.41L28.39-10.41Q28.11-10.77 28.11-13.09L28.11-13.09Q28.11-13.57 28.11-13.85 28.11-14.13 28.11-14.61L28.11-14.61Q28.11-16.94 28.39-17.3L28.39-17.3Q28.67-17.62 30.23-17.62L30.23-17.62Q30.55-17.62 30.75-17.62L30.75-17.62Q30.91-17.62 31.19-17.62L31.19-17.62Q32.83-17.62 33.11-17.24 33.39-16.86 33.39-14.45L33.39-14.45Q33.39-14.05 33.39-13.85L33.39-13.85Q33.39-11.61 33.31-11.05 33.23-10.49 32.87-10.29ZM3.56-3.88L3.56-3.88Q4.48-3.4 5.75-4.1 7.01-4.8 6.93-5.77L6.93-5.77Q6.73-8.73 6.97-9.33 7.21-9.93 8.69-9.93L8.69-9.93Q10.01-9.93 10.27-9.63 10.53-9.33 10.49-7.81L10.49-7.81Q10.45-6.37 10.99-6.15 11.53-5.93 13.17-6.73L13.17-6.73Q13.81-7.01 13.95-7.15 14.09-7.29 14.17-7.91 14.25-8.53 14.09-9.77L14.09-9.77Q14.01-12.09 13.97-19.28 13.93-26.47 14.01-26.83L14.01-26.83Q14.13-27.31 14.39-27.45 14.65-27.59 14.93-27.39 15.21-27.19 15.5-26.67L15.5-26.67Q15.9-25.91 16.02-25.83 16.14-25.75 16.86-25.95L16.86-25.95Q19.3-26.59 20-26.11 20.7-25.63 20.58-23.26L20.58-23.26Q20.5-21.38 20.5-21.1 20.5-20.82 20.7-20.62L20.7-20.62Q20.98-20.34 21.88-20.48 22.78-20.62 23.58-21.1L23.58-21.1Q24.02-21.38 24.1-21.66 24.18-21.94 24.1-23.38L24.1-23.38Q23.98-25.5 24.28-25.87 24.58-26.23 26.43-26.23L26.43-26.23Q28.31-26.23 28.61-25.87 28.91-25.5 28.79-23.3L28.79-23.3Q28.71-21.54 28.73-21.22 28.75-20.9 28.91-20.7L28.91-20.7Q29.51-20.1 31.39-20.98L31.39-20.98Q32.15-21.3 32.27-21.6 32.39-21.9 32.35-23.54L32.35-23.54Q32.35-23.74 32.35-24.1L32.35-24.1Q32.27-25.67 32.59-25.95 32.91-26.23 34.95-26.23L34.95-26.23Q35.47-26.23 35.75-26.23L35.75-26.23Q37.96-26.27 38.42-26.33 38.88-26.39 39.08-26.71L39.08-26.71Q39.4-27.15 37.48-29.07L37.48-29.07Q36.2-30.31 35.9-30.29 35.59-30.27 34.75-28.99L34.75-28.99Q33.67-27.15 32.83-27.55L32.83-27.55Q32.23-27.87 32.25-29.77 32.27-31.67 32.87-32.23L32.87-32.23Q33.43-32.67 32.43-33.11L32.43-33.11Q31.71-33.43 29.83-33.95L29.83-33.95Q28.79-34.23 28.63-34.19 28.47-34.15 28.55-33.59L28.55-33.59Q28.75-32.11 28.79-30.13 28.83-28.15 28.67-27.91L28.67-27.91Q28.43-27.55 28.07-27.47 27.71-27.39 26.43-27.39L26.43-27.39Q24.66-27.39 24.36-27.69 24.06-27.99 24.06-29.79L24.06-29.79Q24.06-31.19 24.14-31.61 24.22-32.03 24.54-32.31L24.54-32.31Q25.1-32.79 23.5-33.39L23.5-33.39Q22.7-33.67 21.3-34.03L21.3-34.03Q20.5-34.23 20.38-34.17 20.26-34.11 20.34-33.59L20.34-33.59Q20.58-31.75 20.58-29.43L20.58-29.43Q20.62-27.87 20.14-27.59 19.66-27.31 17.3-27.47L17.3-27.47Q15.33-27.63 15.33-27.99L15.33-27.99Q15.33-28.07 15.42-28.15L15.42-28.15Q15.58-28.35 14.99-29.01 14.41-29.67 13.41-30.43 12.41-31.19 12.13-31.23 11.85-31.27 11.45-30.79L11.45-30.79Q10.45-29.63 10.03-29.41 9.61-29.19 8.45-29.19L8.45-29.19Q7.49-29.19 6.95-29.35 6.41-29.51 4.84-30.19L4.84-30.19Q3.28-30.91 3.12-30.75L3.12-30.75Q3.04-30.67 3.16-29.67L3.16-29.67Q3.48-25.75 3.48-18.38 3.48-11.01 3.24-7.25L3.24-7.25Q3.08-5 3.14-4.54 3.2-4.08 3.56-3.88ZM9.97-11.21L9.97-11.21Q9.69-11.09 8.69-11.09 7.69-11.09 7.41-11.21L7.41-11.21Q7.05-11.37 6.97-11.61L6.97-11.61Q6.85-12.09 6.81-19.38L6.81-19.38Q6.81-20.06 6.81-21.3L6.81-21.3Q6.81-26.91 7.09-27.59L7.09-27.59Q7.29-28.07 8.13-28.03L8.13-28.03Q8.17-28.03 8.25-28.03L8.25-28.03Q8.53-28.03 8.69-28.03 8.85-28.03 9.13-28.03L9.13-28.03Q10.21-28.07 10.39-27.23 10.57-26.39 10.57-21.3L10.57-21.3Q10.57-20.06 10.57-19.38L10.57-19.38Q10.53-11.93 10.37-11.49L10.37-11.49Q10.29-11.37 9.97-11.21ZM61.34 3.2L61.34 3.2Q62.22 3.64 63.56 3.02 64.9 2.4 64.82 1.6L64.82 1.6Q64.7 0.64 64.94 0.44L64.94 0.44Q65.42 0.08 69.7 0.08L69.7 0.08Q69.94 0.08 71.51 0.08L71.51 0.08 72.55 0.08Q77.51 0.08 78.03 0.36L78.03 0.36Q78.35 0.52 78.27 1.28L78.27 1.28Q78.23 1.44 78.23 1.52L78.23 1.52Q78.15 2.36 78.69 2.54 79.23 2.72 80.51 2.24L80.51 2.24Q81.76 1.8 81.96 1.44 82.16 1.08 82.08-0.52L82.08-0.52Q81.92-3.8 81.86-9.83 81.8-15.86 81.92-16.3L81.92-16.3Q82.08-16.98 83.08-17.5L83.08-17.5Q83.32-17.66 83.22-18 83.12-18.34 82.62-18.86 82.12-19.38 81.28-20.02L81.28-20.02Q80.23-20.82 79.91-20.8 79.59-20.78 78.87-19.9L78.87-19.9Q78.79-19.78 78.63-19.62L78.63-19.62Q78.15-19.02 77.43-18.9 76.71-18.78 73.15-18.78L73.15-18.78Q72.07-18.78 71.43-18.78L71.43-18.78Q65.14-18.78 64.9-18.86L64.9-18.86Q64.86-18.86 62.94-19.68 61.02-20.5 60.9-20.5 60.78-20.5 60.98-18.46L60.98-18.46Q60.98-18.34 61.02-18.02L61.02-18.02Q61.22-15.86 61.2-9.41 61.18-2.96 60.94 1L60.94 1Q60.9 2.36 60.96 2.7 61.02 3.04 61.34 3.2ZM69.1-1.24L69.1-1.24Q68.78-1.08 67.22-1.08L67.22-1.08Q67.06-1.08 66.82-1.08L66.82-1.08Q65.26-1.08 65.02-1.46 64.78-1.84 64.78-4.2L64.78-4.2Q64.78-4.72 64.78-5 64.78-5.29 64.78-5.81L64.78-5.81Q64.78-8.17 65.02-8.55 65.26-8.93 66.82-8.93L66.82-8.93Q67.06-8.93 67.22-8.93 67.38-8.93 67.62-8.93L67.62-8.93Q69.18-8.93 69.42-8.55 69.66-8.17 69.66-5.81L69.66-5.81Q69.66-5.29 69.66-5L69.66-5Q69.66-2.4 69.58-1.9 69.5-1.4 69.1-1.24ZM77.75-1.2L77.75-1.2Q77.43-1.08 75.75-1.08L75.75-1.08Q75.59-1.08 75.31-1.08L75.31-1.08Q73.71-1.08 73.43-1.44L73.43-1.44Q73.11-1.8 73.11-4.36L73.11-4.36Q73.11-4.76 73.11-5L73.11-5Q73.11-5.25 73.11-5.65L73.11-5.65Q73.11-8.13 73.37-8.53 73.63-8.93 75.27-8.93L75.27-8.93Q75.55-8.93 75.71-8.93 75.87-8.93 76.15-8.93L76.15-8.93Q77.75-8.93 78.03-8.57L78.03-8.57Q78.35-8.21 78.35-5.65L78.35-5.65Q78.35-5.25 78.35-5L78.35-5Q78.35-2.4 78.27-1.9 78.19-1.4 77.75-1.2ZM69.18-10.21L69.18-10.21Q68.94-10.05 67.22-10.07 65.5-10.09 65.26-10.25L65.26-10.25Q64.9-10.41 64.84-10.89 64.78-11.37 64.78-13.85L64.78-13.85Q64.78-14.13 64.78-14.65L64.78-14.65Q64.78-17.02 65.1-17.34L65.1-17.34Q65.34-17.62 66.74-17.62L66.74-17.62Q67.06-17.62 67.22-17.62L67.22-17.62Q67.38-17.62 67.7-17.62L67.7-17.62Q69.18-17.62 69.42-17.26 69.66-16.9 69.66-14.65L69.66-14.65Q69.66-14.13 69.66-13.85L69.66-13.85Q69.66-11.37 69.6-10.89 69.54-10.41 69.18-10.21ZM77.87-10.29L77.87-10.29Q77.63-10.09 75.71-10.09L75.71-10.09Q75.51-10.09 75.19-10.09L75.19-10.09Q73.67-10.09 73.39-10.41L73.39-10.41Q73.11-10.77 73.11-13.09L73.11-13.09Q73.11-13.57 73.11-13.85 73.11-14.13 73.11-14.61L73.11-14.61Q73.11-16.94 73.39-17.3L73.39-17.3Q73.67-17.62 75.23-17.62L75.23-17.62Q75.55-17.62 75.75-17.62L75.75-17.62Q75.91-17.62 76.19-17.62L76.19-17.62Q77.83-17.62 78.11-17.24 78.39-16.86 78.39-14.45L78.39-14.45Q78.39-14.05 78.39-13.85L78.39-13.85Q78.39-11.61 78.31-11.05 78.23-10.49 77.87-10.29ZM48.56-3.88L48.56-3.88Q49.48-3.4 50.75-4.1 52.01-4.8 51.93-5.77L51.93-5.77Q51.73-8.73 51.97-9.33 52.21-9.93 53.69-9.93L53.69-9.93Q55.01-9.93 55.27-9.63 55.53-9.33 55.49-7.81L55.49-7.81Q55.45-6.37 55.99-6.15 56.53-5.93 58.17-6.73L58.17-6.73Q58.81-7.01 58.95-7.15 59.09-7.29 59.17-7.91 59.25-8.53 59.09-9.77L59.09-9.77Q59.01-12.09 58.97-19.28 58.93-26.47 59.01-26.83L59.01-26.83Q59.13-27.31 59.39-27.45 59.65-27.59 59.93-27.39 60.21-27.19 60.5-26.67L60.5-26.67Q60.9-25.91 61.02-25.83 61.14-25.75 61.86-25.95L61.86-25.95Q64.3-26.59 65-26.11 65.7-25.63 65.58-23.26L65.58-23.26Q65.5-21.38 65.5-21.1 65.5-20.82 65.7-20.62L65.7-20.62Q65.98-20.34 66.88-20.48 67.78-20.62 68.58-21.1L68.58-21.1Q69.02-21.38 69.1-21.66 69.18-21.94 69.1-23.38L69.1-23.38Q68.98-25.5 69.28-25.87 69.58-26.23 71.43-26.23L71.43-26.23Q73.31-26.23 73.61-25.87 73.91-25.5 73.79-23.3L73.79-23.3Q73.71-21.54 73.73-21.22 73.75-20.9 73.91-20.7L73.91-20.7Q74.51-20.1 76.39-20.98L76.39-20.98Q77.15-21.3 77.27-21.6 77.39-21.9 77.35-23.54L77.35-23.54Q77.35-23.74 77.35-24.1L77.35-24.1Q77.27-25.67 77.59-25.95 77.91-26.23 79.95-26.23L79.95-26.23Q80.47-26.23 80.75-26.23L80.75-26.23Q82.96-26.27 83.42-26.33 83.88-26.39 84.08-26.71L84.08-26.71Q84.4-27.15 82.48-29.07L82.48-29.07Q81.2-30.31 80.9-30.29 80.59-30.27 79.75-28.99L79.75-28.99Q78.67-27.15 77.83-27.55L77.83-27.55Q77.23-27.87 77.25-29.77 77.27-31.67 77.87-32.23L77.87-32.23Q78.43-32.67 77.43-33.11L77.43-33.11Q76.71-33.43 74.83-33.95L74.83-33.95Q73.79-34.23 73.63-34.19 73.47-34.15 73.55-33.59L73.55-33.59Q73.75-32.11 73.79-30.13 73.83-28.15 73.67-27.91L73.67-27.91Q73.43-27.55 73.07-27.47 72.71-27.39 71.43-27.39L71.43-27.39Q69.66-27.39 69.36-27.69 69.06-27.99 69.06-29.79L69.06-29.79Q69.06-31.19 69.14-31.61 69.22-32.03 69.54-32.31L69.54-32.31Q70.1-32.79 68.5-33.39L68.5-33.39Q67.7-33.67 66.3-34.03L66.3-34.03Q65.5-34.23 65.38-34.17 65.26-34.11 65.34-33.59L65.34-33.59Q65.58-31.75 65.58-29.43L65.58-29.43Q65.62-27.87 65.14-27.59 64.66-27.31 62.3-27.47L62.3-27.47Q60.33-27.63 60.33-27.99L60.33-27.99Q60.33-28.07 60.42-28.15L60.42-28.15Q60.58-28.35 59.99-29.01 59.41-29.67 58.41-30.43 57.41-31.19 57.13-31.23 56.85-31.27 56.45-30.79L56.45-30.79Q55.45-29.63 55.03-29.41 54.61-29.19 53.45-29.19L53.45-29.19Q52.49-29.19 51.95-29.35 51.41-29.51 49.84-30.19L49.84-30.19Q48.28-30.91 48.12-30.75L48.12-30.75Q48.04-30.67 48.16-29.67L48.16-29.67Q48.48-25.75 48.48-18.38 48.48-11.01 48.24-7.25L48.24-7.25Q48.08-5 48.14-4.54 48.2-4.08 48.56-3.88ZM54.97-11.21L54.97-11.21Q54.69-11.09 53.69-11.09 52.69-11.09 52.41-11.21L52.41-11.21Q52.05-11.37 51.97-11.61L51.97-11.61Q51.85-12.09 51.81-19.38L51.81-19.38Q51.81-20.06 51.81-21.3L51.81-21.3Q51.81-26.91 52.09-27.59L52.09-27.59Q52.29-28.07 53.13-28.03L53.13-28.03Q53.17-28.03 53.25-28.03L53.25-28.03Q53.53-28.03 53.69-28.03 53.85-28.03 54.13-28.03L54.13-28.03Q55.21-28.07 55.39-27.23 55.57-26.39 55.57-21.3L55.57-21.3Q55.57-20.06 55.57-19.38L55.57-19.38Q55.53-11.93 55.37-11.49L55.37-11.49Q55.29-11.37 54.97-11.21Z"
                                  transform="translate(-3.0880000591278076, 34.19499969482422)"/>
                        </g> <!----> <!----> <!----> <!----> <!----> <!---->
                        <g data-gra="path-name-1" fill="#cd8c2a" transform="translate(0,40.577640533447266)">
                            <g transform="scale(1.02326)">
                                <path d="M5.41 3.32L5.41 3.32Q5.81 3.48 6.75 3.32 7.69 3.16 8.17 2.84L8.17 2.84Q8.57 2.6 8.67 2.4 8.77 2.2 8.73 1.52L8.73 1.52Q8.61 0.36 9.09-0.04L9.09-0.04Q9.33-0.24 20.32-0.26 31.31-0.28 31.67-0.12L31.67-0.12Q31.99 0.08 32.07 0.38 32.15 0.68 32.11 1.52L32.11 1.52Q32.07 2.72 32.55 2.98 33.03 3.24 34.47 2.8L34.47 2.8Q35.71 2.4 35.94 2.04 36.16 1.68 36.08 0.2L36.08 0.2Q35.51-11.21 36.44-11.93L36.44-11.93Q37.16-12.49 35.47-13.05L35.47-13.05Q34.67-13.33 33.23-13.69L33.23-13.69Q31.83-14.05 31.79-13.85L31.79-13.85Q31.75-13.81 31.79-13.61L31.79-13.61Q32.11-11.53 32.21-6.95 32.31-2.36 32.03-1.92L32.03-1.92Q31.79-1.52 31.21-1.46 30.63-1.4 27.19-1.4L27.19-1.4Q26.51-1.4 25.46-1.36L25.46-1.36Q22.94-1.32 22.52-1.96 22.1-2.6 22.14-6.61L22.14-6.61Q22.14-8.29 22.14-9.29L22.14-9.29Q22.14-10.37 22.14-12.13L22.14-12.13Q22.06-13.77 22.12-14.81 22.18-15.86 22.28-16.44 22.38-17.02 22.7-17.26 23.02-17.5 23.52-17.56 24.02-17.62 24.9-17.58L24.9-17.58Q25.71-17.54 26.19-17.54L26.19-17.54Q29.27-17.54 29.81-17.38 30.35-17.22 30.23-16.3L30.23-16.3Q30.19-15.7 30.67-15.44 31.15-15.17 31.99-15.33 32.83-15.5 33.63-16.02L33.63-16.02Q34.03-16.26 34.07-16.6 34.11-16.94 34.03-19.18L34.03-19.18Q33.83-24.5 33.91-26.35 33.99-28.19 34.51-28.63L34.51-28.63Q35.07-29.15 33.91-29.59L33.91-29.59Q33.15-29.91 31.27-30.43L31.27-30.43Q30.11-30.71 29.99-30.63 29.87-30.55 29.99-29.51L29.99-29.51Q30.27-27.03 30.33-23.32 30.39-19.62 30.15-19.22L30.15-19.22Q29.95-18.82 29.43-18.76 28.91-18.7 26.23-18.7L26.23-18.7Q25.75-18.7 24.94-18.7L24.94-18.7Q22.82-18.62 22.48-19.18 22.14-19.74 22.18-23.18L22.18-23.18Q22.18-24.54 22.18-25.38L22.18-25.38Q22.18-30.35 22.26-31.17 22.34-31.99 22.82-32.31L22.82-32.31Q23.58-32.79 21.74-33.43L21.74-33.43Q20.86-33.75 19.3-34.15L19.3-34.15Q18.22-34.43 18.1-34.33 17.98-34.23 18.1-33.27L18.1-33.27Q18.38-30.79 18.44-25.2 18.5-19.62 18.26-19.22L18.26-19.22Q18.06-18.82 17.56-18.76 17.06-18.7 14.49-18.7L14.49-18.7Q11.69-18.7 11.37-18.78L11.37-18.78Q10.65-19.02 10.57-20.3L10.57-20.3Q10.57-20.38 10.57-23.62L10.57-23.62Q10.57-26.99 10.67-27.67 10.77-28.35 11.21-28.63L11.21-28.63Q11.97-29.11 10.41-29.71L10.41-29.71Q9.57-29.99 7.85-30.47L7.85-30.47Q6.61-30.79 6.61-30.55L6.61-30.55Q6.61-30.51 6.61-30.43L6.61-30.43Q6.93-29.39 7.01-24.68 7.09-19.98 6.85-16.42L6.85-16.42Q6.77-15.46 7.15-15.21 7.53-14.97 8.73-15.21L8.73-15.21Q10.57-15.58 10.57-16.54L10.57-16.54Q10.57-17.14 11.05-17.42L11.05-17.42Q11.37-17.58 14.55-17.56 17.74-17.54 17.98-17.34L17.98-17.34Q18.34-17.1 18.4-16.14 18.46-15.17 18.46-9.29L18.46-9.29Q18.46-8.29 18.46-6.65L18.46-6.65Q18.5-2.64 18.08-1.96 17.66-1.28 15.25-1.36L15.25-1.36Q14.21-1.4 13.57-1.4L13.57-1.4Q12.97-1.4 12.01-1.4L12.01-1.4Q9.49-1.36 9.07-1.8 8.65-2.24 8.69-5.04L8.69-5.04Q8.69-6.09 8.69-6.73L8.69-6.73Q8.73-10.41 8.79-11.05 8.85-11.69 9.21-11.89L9.21-11.89Q10.25-12.41 7.93-13.17L7.93-13.17Q7.05-13.45 5.65-13.81L5.65-13.81Q4.8-14.01 4.72-13.95 4.64-13.89 4.72-13.09L4.72-13.09Q4.96-11.09 5.02-6.03 5.08-0.96 4.92 1.44L4.92 1.44Q4.84 2.6 4.9 2.88 4.96 3.16 5.41 3.32ZM53.47 3.44L53.47 3.44Q54.63 3.64 56.32 2.84L56.32 2.84Q57 2.52 57.08 2.24L57.08 2.24Q57.12 2.04 57.04-0.08L57.04-0.08Q56.76-6.01 56.86-11.69 56.96-17.38 57.36-17.5L57.36-17.5Q57.8-17.66 57.86-17.9 57.92-18.14 57.56-18.3L57.56-18.3Q56.96-18.54 57.14-19.02 57.32-19.5 58.56-21.02L58.56-21.02Q60.24-22.94 60.56-22.94L60.56-22.94Q62.08-22.94 59.2-24.82L59.2-24.82Q58.52-25.26 57.56-25.83L57.56-25.83Q56.72-26.31 56.58-26.29 56.44-26.27 56.24-25.67L56.24-25.67Q55.19-22.62 52.65-18.66 50.11-14.69 47.31-11.73L47.31-11.73Q46.83-11.17 46.77-11.05 46.71-10.93 46.87-10.77L46.87-10.77Q47.19-10.45 50.51-13.09L50.51-13.09Q51.75-14.13 52.11-14.31 52.47-14.49 52.75-14.41L52.75-14.41Q53.11-14.25 53.13-9.47 53.15-4.68 52.83 0.64L52.83 0.64Q52.71 2.2 52.71 2.68L52.71 2.68Q52.71 2.88 52.95 3.14 53.19 3.4 53.47 3.44ZM70.85 2.64L70.85 2.64Q70.85 2.72 70.89 2.88L70.89 2.88Q70.93 3.16 71.03 3.2 71.13 3.24 71.69 3.16L71.69 3.16Q71.93 3.12 72.09 3.08L72.09 3.08Q74.17 2.8 75.21 2.06 76.26 1.32 76.62-0.08L76.62-0.08Q76.78-0.68 76.8-5.49 76.82-10.29 76.84-14.83 76.86-19.38 77.02-19.58L77.02-19.58Q77.18-19.86 77.64-19.92 78.1-19.98 80.38-20.02L80.38-20.02Q82.78-20.06 83.24-20.12 83.7-20.18 83.86-20.5L83.86-20.5Q83.98-20.74 83.16-21.64 82.34-22.54 81.14-23.42L81.14-23.42Q80.26-24.06 80-24 79.74-23.94 78.98-22.86L78.98-22.86Q78.06-21.54 77.62-21.3L77.62-21.3Q77.34-21.14 70.25-21.14 63.16-21.14 61.68-21.3L61.68-21.3Q61.12-21.34 60.96-21.36 60.8-21.38 60.68-21.28 60.56-21.18 60.64-21.04 60.72-20.9 60.96-20.42L60.96-20.42Q61.32-19.66 61.54-19.6 61.76-19.54 62.92-19.7L62.92-19.7Q65.4-20.02 68.85-20.06 72.29-20.1 72.61-19.82 72.93-19.54 72.97-18.38 73.01-17.22 73.01-10.41L73.01-10.41Q73.01-9.33 73.01-7.53L73.01-7.53Q73.09-6.29 73.03-5.35 72.97-4.4 72.97-3.7 72.97-3 72.81-2.54 72.65-2.08 72.51-1.78 72.37-1.48 72.01-1.34 71.65-1.2 71.27-1.16 70.89-1.12 70.23-1.16 69.57-1.2 68.85-1.28L68.85-1.28Q67.73-1.4 67.05-1.44L67.05-1.44Q65.4-1.56 65.28-1.48L65.28-1.48Q64.96-1.2 65.77-1L65.77-1Q65.97-0.96 66.29-0.88L66.29-0.88Q68.57-0.44 69.61 0.38 70.65 1.2 70.85 2.64ZM47.71-22.62L47.71-22.62Q48.15-22.22 51.79-24.76 55.44-27.31 58.16-29.87L58.16-29.87Q59.48-31.19 60.2-31.35L60.2-31.35Q61.2-31.55 59.76-32.39L59.76-32.39Q57.68-33.75 57-34.23L57-34.23Q56.6-34.51 56.42-34.59 56.24-34.67 56.12-34.61 56-34.55 55.92-34.31L55.92-34.31Q53.99-29.59 48.67-24.06L48.67-24.06Q47.51-22.9 47.71-22.62ZM63.2-29.75L63.2-29.75Q63.52-29.07 63.66-28.99 63.8-28.91 64.52-29.03L64.52-29.03Q66.85-29.39 74.49-29.43L74.49-29.43Q80.02-29.47 81.06-29.53 82.1-29.59 82.26-29.91L82.26-29.91Q82.3-29.91 82.3-29.95L82.3-29.95Q82.58-30.51 80.22-32.39L80.22-32.39Q79.3-33.11 78.98-33.25 78.66-33.39 78.4-33.21 78.14-33.03 77.54-32.19L77.54-32.19Q76.74-31.07 76.46-30.91L76.46-30.91Q75.94-30.59 72.81-30.59L72.81-30.59Q71.53-30.59 71.17-30.59L71.17-30.59Q65.73-30.59 63.4-30.79L63.4-30.79Q62.84-30.83 62.82-30.71 62.8-30.59 63.2-29.75Z"
                                      transform="translate(-4.679999828338623, 34.63571548461914)"/>
                            </g>
                        </g>
                    </g>
                </g> <!---->
            </g>
        </g>
    </g>
    <mask id="f35e0522-4e30-4764-8169-52a0531d5571">
        <g fill="white">
            <g>
                <rect fill-opacity="1" stroke-width="2" x="0" y="0" width="150" height="134.97219572768012"
                      class="image-rect"/>
                <svg x="0" y="0" width="150" height="134.97219572768012" filtersec="colorsb8145539518"
                     class="image-svg-svg primary" style="overflow: visible;">
                    <svg xmlns="http://www.w3.org/2000/svg" viewBox="0 0 116.3463134765625 104.69013977050781">
                        <title>资源 13</title>
                        <path d="M82.2 41.1A41.1 41.1 0 1 1 41.1 0a41.1 41.1 0 0 1 41.1 41.1z" opacity=".8"/>
                        <path d="M25.18 66.73c-.1-.8-.6-1.83-2.42-2.25a2.65 2.65 0 0 0-2.5.58c-1.67 1.53-1.7 5.44-1.55 7.71a84.42 84.42 0 0 1-2.93-9.51c2.37-.93 6.63-4.5 6.6-7.29 0-.8-.39-1.89-2.14-2.5a2.64 2.64 0 0 0-2.56.28C15.91 55 15.4 58.69 15.27 61a68.68 68.68 0 0 1-1.4-9.82c2.55-.3 7.51-2.6 8.21-5.26.2-.77.12-1.92-1.41-3a2.63 2.63 0 0 0-2.53-.41c-2.17.82-3.67 4.56-4.37 6.7A51 51 0 0 1 14.71 37a.38.38 0 0 0-.3-.45.38.38 0 0 0-.44.29 50.54 50.54 0 0 0-1 8.83c-.54-2.19-1.53-5-3.22-5.89a2.63 2.63 0 0 0-2.56.09c-1.65.86-1.87 2-1.77 2.79.4 2.79 5.11 5.71 7.58 6.34a67.91 67.91 0 0 0 1.3 11.1c-1.21-2-3.38-4.94-5.55-5.23a2.62 2.62 0 0 0-2.38 1c-1.25 1.28-1.07 2.42-.7 3.13 1.15 2.21 5.63 3.35 8.37 3.35h.75a85.71 85.71 0 0 0 2.6 9c-1.58-1.65-4.45-4.27-6.7-4.08a2.63 2.63 0 0 0-2.12 1.45c-.93 1.61-.51 2.68 0 3.3 1.07 1.28 3.53 1.77 5.84 1.77a13.25 13.25 0 0 0 3.68-.48 70.5 70.5 0 0 0 2.91 6.8.4.4 0 0 0 .34.2.37.37 0 0 0 .17 0 .38.38 0 0 0 .16-.5c0-.07-1-1.93-2.25-5 2.29-1.28 6.11-5.32 5.76-8.08zm-7.06-12.37a1.73 1.73 0 0 1 1-.34 2.66 2.66 0 0 1 .83.15c1.09.39 1.63 1 1.64 1.81 0 2.11-3.31 5.24-5.66 6.38.07-1.68.3-6.63 2.19-8zm.28-11.14a2 2 0 0 1 .62-.11 2.16 2.16 0 0 1 1.23.43c.95.67 1.31 1.38 1.1 2.18-.53 2-4.59 4.18-7.15 4.65.61-2.14 2.19-6.37 4.2-7.15zM6.34 58.65c-.39-.73-.19-1.51.59-2.37a2 2 0 0 1 1.47-.73h.26c2.32.32 4.87 4.57 5.68 6-2.62.16-7.03-1.03-8-2.9zM9.15 71.5a2 2 0 0 1 .07-2.44A1.9 1.9 0 0 1 10.75 68h.19c2.32 0 5.58 3.45 6.66 4.68-2.52.64-7.1.44-8.45-1.18zM6.2 42.6c-.11-.83.33-1.49 1.37-2a2.32 2.32 0 0 1 1-.29 1.69 1.69 0 0 1 .81.21c2.08 1.09 3 5.95 3.29 7.61-2.44-.82-6.2-3.45-6.47-5.53zm13.34 31.21c-.23-2.22-.35-6.75 1.23-8.2a1.74 1.74 0 0 1 1.23-.47 2.77 2.77 0 0 1 .61.08c1.13.25 1.73.78 1.84 1.6.25 2.09-2.7 5.59-4.91 6.99zm45.37 30.88A51.16 51.16 0 0 1 24.53 85.1a.38.38 0 0 1 .07-.53.37.37 0 0 1 .52.06 50.64 50.64 0 1 0-7-50.66.39.39 0 0 1-.49.21.37.37 0 0 1-.2-.49 51.4 51.4 0 1 1 47.52 71z"/>
                    </svg>
                </svg>
            </g>
        </g>
        <g transform="translate(46.48114013671875,30.696136474609375)" fill="black" stroke="black" stroke-width="6"
           stroke-linejoin="round">
            <g data-gra="path-name" fill-rule="" class="tp-name">
                <g transform="scale(1)">
                    <g>
                        <path d="M16.34 3.2L16.34 3.2Q17.22 3.64 18.56 3.02 19.9 2.4 19.82 1.6L19.82 1.6Q19.7 0.64 19.94 0.44L19.94 0.44Q20.42 0.08 24.7 0.08L24.7 0.08Q24.94 0.08 26.51 0.08L26.51 0.08 27.55 0.08Q32.51 0.08 33.03 0.36L33.03 0.36Q33.35 0.52 33.27 1.28L33.27 1.28Q33.23 1.44 33.23 1.52L33.23 1.52Q33.15 2.36 33.69 2.54 34.23 2.72 35.51 2.24L35.51 2.24Q36.76 1.8 36.96 1.44 37.16 1.08 37.08-0.52L37.08-0.52Q36.92-3.8 36.86-9.83 36.8-15.86 36.92-16.3L36.92-16.3Q37.08-16.98 38.08-17.5L38.08-17.5Q38.32-17.66 38.22-18 38.12-18.34 37.62-18.86 37.12-19.38 36.28-20.02L36.28-20.02Q35.23-20.82 34.91-20.8 34.59-20.78 33.87-19.9L33.87-19.9Q33.79-19.78 33.63-19.62L33.63-19.62Q33.15-19.02 32.43-18.9 31.71-18.78 28.15-18.78L28.15-18.78Q27.07-18.78 26.43-18.78L26.43-18.78Q20.14-18.78 19.9-18.86L19.9-18.86Q19.86-18.86 17.94-19.68 16.02-20.5 15.9-20.5 15.78-20.5 15.98-18.46L15.98-18.46Q15.98-18.34 16.02-18.02L16.02-18.02Q16.22-15.86 16.2-9.41 16.18-2.96 15.94 1L15.94 1Q15.9 2.36 15.96 2.7 16.02 3.04 16.34 3.2ZM24.1-1.24L24.1-1.24Q23.78-1.08 22.22-1.08L22.22-1.08Q22.06-1.08 21.82-1.08L21.82-1.08Q20.26-1.08 20.02-1.46 19.78-1.84 19.78-4.2L19.78-4.2Q19.78-4.72 19.78-5 19.78-5.29 19.78-5.81L19.78-5.81Q19.78-8.17 20.02-8.55 20.26-8.93 21.82-8.93L21.82-8.93Q22.06-8.93 22.22-8.93 22.38-8.93 22.62-8.93L22.62-8.93Q24.18-8.93 24.42-8.55 24.66-8.17 24.66-5.81L24.66-5.81Q24.66-5.29 24.66-5L24.66-5Q24.66-2.4 24.58-1.9 24.5-1.4 24.1-1.24ZM32.75-1.2L32.75-1.2Q32.43-1.08 30.75-1.08L30.75-1.08Q30.59-1.08 30.31-1.08L30.31-1.08Q28.71-1.08 28.43-1.44L28.43-1.44Q28.11-1.8 28.11-4.36L28.11-4.36Q28.11-4.76 28.11-5L28.11-5Q28.11-5.25 28.11-5.65L28.11-5.65Q28.11-8.13 28.37-8.53 28.63-8.93 30.27-8.93L30.27-8.93Q30.55-8.93 30.71-8.93 30.87-8.93 31.15-8.93L31.15-8.93Q32.75-8.93 33.03-8.57L33.03-8.57Q33.35-8.21 33.35-5.65L33.35-5.65Q33.35-5.25 33.35-5L33.35-5Q33.35-2.4 33.27-1.9 33.19-1.4 32.75-1.2ZM24.18-10.21L24.18-10.21Q23.94-10.05 22.22-10.07 20.5-10.09 20.26-10.25L20.26-10.25Q19.9-10.41 19.84-10.89 19.78-11.37 19.78-13.85L19.78-13.85Q19.78-14.13 19.78-14.65L19.78-14.65Q19.78-17.02 20.1-17.34L20.1-17.34Q20.34-17.62 21.74-17.62L21.74-17.62Q22.06-17.62 22.22-17.62L22.22-17.62Q22.38-17.62 22.7-17.62L22.7-17.62Q24.18-17.62 24.42-17.26 24.66-16.9 24.66-14.65L24.66-14.65Q24.66-14.13 24.66-13.85L24.66-13.85Q24.66-11.37 24.6-10.89 24.54-10.41 24.18-10.21ZM32.87-10.29L32.87-10.29Q32.63-10.09 30.71-10.09L30.71-10.09Q30.51-10.09 30.19-10.09L30.19-10.09Q28.67-10.09 28.39-10.41L28.39-10.41Q28.11-10.77 28.11-13.09L28.11-13.09Q28.11-13.57 28.11-13.85 28.11-14.13 28.11-14.61L28.11-14.61Q28.11-16.94 28.39-17.3L28.39-17.3Q28.67-17.62 30.23-17.62L30.23-17.62Q30.55-17.62 30.75-17.62L30.75-17.62Q30.91-17.62 31.19-17.62L31.19-17.62Q32.83-17.62 33.11-17.24 33.39-16.86 33.39-14.45L33.39-14.45Q33.39-14.05 33.39-13.85L33.39-13.85Q33.39-11.61 33.31-11.05 33.23-10.49 32.87-10.29ZM3.56-3.88L3.56-3.88Q4.48-3.4 5.75-4.1 7.01-4.8 6.93-5.77L6.93-5.77Q6.73-8.73 6.97-9.33 7.21-9.93 8.69-9.93L8.69-9.93Q10.01-9.93 10.27-9.63 10.53-9.33 10.49-7.81L10.49-7.81Q10.45-6.37 10.99-6.15 11.53-5.93 13.17-6.73L13.17-6.73Q13.81-7.01 13.95-7.15 14.09-7.29 14.17-7.91 14.25-8.53 14.09-9.77L14.09-9.77Q14.01-12.09 13.97-19.28 13.93-26.47 14.01-26.83L14.01-26.83Q14.13-27.31 14.39-27.45 14.65-27.59 14.93-27.39 15.21-27.19 15.5-26.67L15.5-26.67Q15.9-25.91 16.02-25.83 16.14-25.75 16.86-25.95L16.86-25.95Q19.3-26.59 20-26.11 20.7-25.63 20.58-23.26L20.58-23.26Q20.5-21.38 20.5-21.1 20.5-20.82 20.7-20.62L20.7-20.62Q20.98-20.34 21.88-20.48 22.78-20.62 23.58-21.1L23.58-21.1Q24.02-21.38 24.1-21.66 24.18-21.94 24.1-23.38L24.1-23.38Q23.98-25.5 24.28-25.87 24.58-26.23 26.43-26.23L26.43-26.23Q28.31-26.23 28.61-25.87 28.91-25.5 28.79-23.3L28.79-23.3Q28.71-21.54 28.73-21.22 28.75-20.9 28.91-20.7L28.91-20.7Q29.51-20.1 31.39-20.98L31.39-20.98Q32.15-21.3 32.27-21.6 32.39-21.9 32.35-23.54L32.35-23.54Q32.35-23.74 32.35-24.1L32.35-24.1Q32.27-25.67 32.59-25.95 32.91-26.23 34.95-26.23L34.95-26.23Q35.47-26.23 35.75-26.23L35.75-26.23Q37.96-26.27 38.42-26.33 38.88-26.39 39.08-26.71L39.08-26.71Q39.4-27.15 37.48-29.07L37.48-29.07Q36.2-30.31 35.9-30.29 35.59-30.27 34.75-28.99L34.75-28.99Q33.67-27.15 32.83-27.55L32.83-27.55Q32.23-27.87 32.25-29.77 32.27-31.67 32.87-32.23L32.87-32.23Q33.43-32.67 32.43-33.11L32.43-33.11Q31.71-33.43 29.83-33.95L29.83-33.95Q28.79-34.23 28.63-34.19 28.47-34.15 28.55-33.59L28.55-33.59Q28.75-32.11 28.79-30.13 28.83-28.15 28.67-27.91L28.67-27.91Q28.43-27.55 28.07-27.47 27.71-27.39 26.43-27.39L26.43-27.39Q24.66-27.39 24.36-27.69 24.06-27.99 24.06-29.79L24.06-29.79Q24.06-31.19 24.14-31.61 24.22-32.03 24.54-32.31L24.54-32.31Q25.1-32.79 23.5-33.39L23.5-33.39Q22.7-33.67 21.3-34.03L21.3-34.03Q20.5-34.23 20.38-34.17 20.26-34.11 20.34-33.59L20.34-33.59Q20.58-31.75 20.58-29.43L20.58-29.43Q20.62-27.87 20.14-27.59 19.66-27.31 17.3-27.47L17.3-27.47Q15.33-27.63 15.33-27.99L15.33-27.99Q15.33-28.07 15.42-28.15L15.42-28.15Q15.58-28.35 14.99-29.01 14.41-29.67 13.41-30.43 12.41-31.19 12.13-31.23 11.85-31.27 11.45-30.79L11.45-30.79Q10.45-29.63 10.03-29.41 9.61-29.19 8.45-29.19L8.45-29.19Q7.49-29.19 6.95-29.35 6.41-29.51 4.84-30.19L4.84-30.19Q3.28-30.91 3.12-30.75L3.12-30.75Q3.04-30.67 3.16-29.67L3.16-29.67Q3.48-25.75 3.48-18.38 3.48-11.01 3.24-7.25L3.24-7.25Q3.08-5 3.14-4.54 3.2-4.08 3.56-3.88ZM9.97-11.21L9.97-11.21Q9.69-11.09 8.69-11.09 7.69-11.09 7.41-11.21L7.41-11.21Q7.05-11.37 6.97-11.61L6.97-11.61Q6.85-12.09 6.81-19.38L6.81-19.38Q6.81-20.06 6.81-21.3L6.81-21.3Q6.81-26.91 7.09-27.59L7.09-27.59Q7.29-28.07 8.13-28.03L8.13-28.03Q8.17-28.03 8.25-28.03L8.25-28.03Q8.53-28.03 8.69-28.03 8.85-28.03 9.13-28.03L9.13-28.03Q10.21-28.07 10.39-27.23 10.57-26.39 10.57-21.3L10.57-21.3Q10.57-20.06 10.57-19.38L10.57-19.38Q10.53-11.93 10.37-11.49L10.37-11.49Q10.29-11.37 9.97-11.21ZM61.34 3.2L61.34 3.2Q62.22 3.64 63.56 3.02 64.9 2.4 64.82 1.6L64.82 1.6Q64.7 0.64 64.94 0.44L64.94 0.44Q65.42 0.08 69.7 0.08L69.7 0.08Q69.94 0.08 71.51 0.08L71.51 0.08 72.55 0.08Q77.51 0.08 78.03 0.36L78.03 0.36Q78.35 0.52 78.27 1.28L78.27 1.28Q78.23 1.44 78.23 1.52L78.23 1.52Q78.15 2.36 78.69 2.54 79.23 2.72 80.51 2.24L80.51 2.24Q81.76 1.8 81.96 1.44 82.16 1.08 82.08-0.52L82.08-0.52Q81.92-3.8 81.86-9.83 81.8-15.86 81.92-16.3L81.92-16.3Q82.08-16.98 83.08-17.5L83.08-17.5Q83.32-17.66 83.22-18 83.12-18.34 82.62-18.86 82.12-19.38 81.28-20.02L81.28-20.02Q80.23-20.82 79.91-20.8 79.59-20.78 78.87-19.9L78.87-19.9Q78.79-19.78 78.63-19.62L78.63-19.62Q78.15-19.02 77.43-18.9 76.71-18.78 73.15-18.78L73.15-18.78Q72.07-18.78 71.43-18.78L71.43-18.78Q65.14-18.78 64.9-18.86L64.9-18.86Q64.86-18.86 62.94-19.68 61.02-20.5 60.9-20.5 60.78-20.5 60.98-18.46L60.98-18.46Q60.98-18.34 61.02-18.02L61.02-18.02Q61.22-15.86 61.2-9.41 61.18-2.96 60.94 1L60.94 1Q60.9 2.36 60.96 2.7 61.02 3.04 61.34 3.2ZM69.1-1.24L69.1-1.24Q68.78-1.08 67.22-1.08L67.22-1.08Q67.06-1.08 66.82-1.08L66.82-1.08Q65.26-1.08 65.02-1.46 64.78-1.84 64.78-4.2L64.78-4.2Q64.78-4.72 64.78-5 64.78-5.29 64.78-5.81L64.78-5.81Q64.78-8.17 65.02-8.55 65.26-8.93 66.82-8.93L66.82-8.93Q67.06-8.93 67.22-8.93 67.38-8.93 67.62-8.93L67.62-8.93Q69.18-8.93 69.42-8.55 69.66-8.17 69.66-5.81L69.66-5.81Q69.66-5.29 69.66-5L69.66-5Q69.66-2.4 69.58-1.9 69.5-1.4 69.1-1.24ZM77.75-1.2L77.75-1.2Q77.43-1.08 75.75-1.08L75.75-1.08Q75.59-1.08 75.31-1.08L75.31-1.08Q73.71-1.08 73.43-1.44L73.43-1.44Q73.11-1.8 73.11-4.36L73.11-4.36Q73.11-4.76 73.11-5L73.11-5Q73.11-5.25 73.11-5.65L73.11-5.65Q73.11-8.13 73.37-8.53 73.63-8.93 75.27-8.93L75.27-8.93Q75.55-8.93 75.71-8.93 75.87-8.93 76.15-8.93L76.15-8.93Q77.75-8.93 78.03-8.57L78.03-8.57Q78.35-8.21 78.35-5.65L78.35-5.65Q78.35-5.25 78.35-5L78.35-5Q78.35-2.4 78.27-1.9 78.19-1.4 77.75-1.2ZM69.18-10.21L69.18-10.21Q68.94-10.05 67.22-10.07 65.5-10.09 65.26-10.25L65.26-10.25Q64.9-10.41 64.84-10.89 64.78-11.37 64.78-13.85L64.78-13.85Q64.78-14.13 64.78-14.65L64.78-14.65Q64.78-17.02 65.1-17.34L65.1-17.34Q65.34-17.62 66.74-17.62L66.74-17.62Q67.06-17.62 67.22-17.62L67.22-17.62Q67.38-17.62 67.7-17.62L67.7-17.62Q69.18-17.62 69.42-17.26 69.66-16.9 69.66-14.65L69.66-14.65Q69.66-14.13 69.66-13.85L69.66-13.85Q69.66-11.37 69.6-10.89 69.54-10.41 69.18-10.21ZM77.87-10.29L77.87-10.29Q77.63-10.09 75.71-10.09L75.71-10.09Q75.51-10.09 75.19-10.09L75.19-10.09Q73.67-10.09 73.39-10.41L73.39-10.41Q73.11-10.77 73.11-13.09L73.11-13.09Q73.11-13.57 73.11-13.85 73.11-14.13 73.11-14.61L73.11-14.61Q73.11-16.94 73.39-17.3L73.39-17.3Q73.67-17.62 75.23-17.62L75.23-17.62Q75.55-17.62 75.75-17.62L75.75-17.62Q75.91-17.62 76.19-17.62L76.19-17.62Q77.83-17.62 78.11-17.24 78.39-16.86 78.39-14.45L78.39-14.45Q78.39-14.05 78.39-13.85L78.39-13.85Q78.39-11.61 78.31-11.05 78.23-10.49 77.87-10.29ZM48.56-3.88L48.56-3.88Q49.48-3.4 50.75-4.1 52.01-4.8 51.93-5.77L51.93-5.77Q51.73-8.73 51.97-9.33 52.21-9.93 53.69-9.93L53.69-9.93Q55.01-9.93 55.27-9.63 55.53-9.33 55.49-7.81L55.49-7.81Q55.45-6.37 55.99-6.15 56.53-5.93 58.17-6.73L58.17-6.73Q58.81-7.01 58.95-7.15 59.09-7.29 59.17-7.91 59.25-8.53 59.09-9.77L59.09-9.77Q59.01-12.09 58.97-19.28 58.93-26.47 59.01-26.83L59.01-26.83Q59.13-27.31 59.39-27.45 59.65-27.59 59.93-27.39 60.21-27.19 60.5-26.67L60.5-26.67Q60.9-25.91 61.02-25.83 61.14-25.75 61.86-25.95L61.86-25.95Q64.3-26.59 65-26.11 65.7-25.63 65.58-23.26L65.58-23.26Q65.5-21.38 65.5-21.1 65.5-20.82 65.7-20.62L65.7-20.62Q65.98-20.34 66.88-20.48 67.78-20.62 68.58-21.1L68.58-21.1Q69.02-21.38 69.1-21.66 69.18-21.94 69.1-23.38L69.1-23.38Q68.98-25.5 69.28-25.87 69.58-26.23 71.43-26.23L71.43-26.23Q73.31-26.23 73.61-25.87 73.91-25.5 73.79-23.3L73.79-23.3Q73.71-21.54 73.73-21.22 73.75-20.9 73.91-20.7L73.91-20.7Q74.51-20.1 76.39-20.98L76.39-20.98Q77.15-21.3 77.27-21.6 77.39-21.9 77.35-23.54L77.35-23.54Q77.35-23.74 77.35-24.1L77.35-24.1Q77.27-25.67 77.59-25.95 77.91-26.23 79.95-26.23L79.95-26.23Q80.47-26.23 80.75-26.23L80.75-26.23Q82.96-26.27 83.42-26.33 83.88-26.39 84.08-26.71L84.08-26.71Q84.4-27.15 82.48-29.07L82.48-29.07Q81.2-30.31 80.9-30.29 80.59-30.27 79.75-28.99L79.75-28.99Q78.67-27.15 77.83-27.55L77.83-27.55Q77.23-27.87 77.25-29.77 77.27-31.67 77.87-32.23L77.87-32.23Q78.43-32.67 77.43-33.11L77.43-33.11Q76.71-33.43 74.83-33.95L74.83-33.95Q73.79-34.23 73.63-34.19 73.47-34.15 73.55-33.59L73.55-33.59Q73.75-32.11 73.79-30.13 73.83-28.15 73.67-27.91L73.67-27.91Q73.43-27.55 73.07-27.47 72.71-27.39 71.43-27.39L71.43-27.39Q69.66-27.39 69.36-27.69 69.06-27.99 69.06-29.79L69.06-29.79Q69.06-31.19 69.14-31.61 69.22-32.03 69.54-32.31L69.54-32.31Q70.1-32.79 68.5-33.39L68.5-33.39Q67.7-33.67 66.3-34.03L66.3-34.03Q65.5-34.23 65.38-34.17 65.26-34.11 65.34-33.59L65.34-33.59Q65.58-31.75 65.58-29.43L65.58-29.43Q65.62-27.87 65.14-27.59 64.66-27.31 62.3-27.47L62.3-27.47Q60.33-27.63 60.33-27.99L60.33-27.99Q60.33-28.07 60.42-28.15L60.42-28.15Q60.58-28.35 59.99-29.01 59.41-29.67 58.41-30.43 57.41-31.19 57.13-31.23 56.85-31.27 56.45-30.79L56.45-30.79Q55.45-29.63 55.03-29.41 54.61-29.19 53.45-29.19L53.45-29.19Q52.49-29.19 51.95-29.35 51.41-29.51 49.84-30.19L49.84-30.19Q48.28-30.91 48.12-30.75L48.12-30.75Q48.04-30.67 48.16-29.67L48.16-29.67Q48.48-25.75 48.48-18.38 48.48-11.01 48.24-7.25L48.24-7.25Q48.08-5 48.14-4.54 48.2-4.08 48.56-3.88ZM54.97-11.21L54.97-11.21Q54.69-11.09 53.69-11.09 52.69-11.09 52.41-11.21L52.41-11.21Q52.05-11.37 51.97-11.61L51.97-11.61Q51.85-12.09 51.81-19.38L51.81-19.38Q51.81-20.06 51.81-21.3L51.81-21.3Q51.81-26.91 52.09-27.59L52.09-27.59Q52.29-28.07 53.13-28.03L53.13-28.03Q53.17-28.03 53.25-28.03L53.25-28.03Q53.53-28.03 53.69-28.03 53.85-28.03 54.13-28.03L54.13-28.03Q55.21-28.07 55.39-27.23 55.57-26.39 55.57-21.3L55.57-21.3Q55.57-20.06 55.57-19.38L55.57-19.38Q55.53-11.93 55.37-11.49L55.37-11.49Q55.29-11.37 54.97-11.21Z"
                              transform="translate(-3.0880000591278076, 34.19499969482422)"/>
                    </g>
                    <g data-gra="path-name-1" transform="translate(0,40.577640533447266)">
                        <g transform="scale(1.02326)">
                            <path d="M5.41 3.32L5.41 3.32Q5.81 3.48 6.75 3.32 7.69 3.16 8.17 2.84L8.17 2.84Q8.57 2.6 8.67 2.4 8.77 2.2 8.73 1.52L8.73 1.52Q8.61 0.36 9.09-0.04L9.09-0.04Q9.33-0.24 20.32-0.26 31.31-0.28 31.67-0.12L31.67-0.12Q31.99 0.08 32.07 0.38 32.15 0.68 32.11 1.52L32.11 1.52Q32.07 2.72 32.55 2.98 33.03 3.24 34.47 2.8L34.47 2.8Q35.71 2.4 35.94 2.04 36.16 1.68 36.08 0.2L36.08 0.2Q35.51-11.21 36.44-11.93L36.44-11.93Q37.16-12.49 35.47-13.05L35.47-13.05Q34.67-13.33 33.23-13.69L33.23-13.69Q31.83-14.05 31.79-13.85L31.79-13.85Q31.75-13.81 31.79-13.61L31.79-13.61Q32.11-11.53 32.21-6.95 32.31-2.36 32.03-1.92L32.03-1.92Q31.79-1.52 31.21-1.46 30.63-1.4 27.19-1.4L27.19-1.4Q26.51-1.4 25.46-1.36L25.46-1.36Q22.94-1.32 22.52-1.96 22.1-2.6 22.14-6.61L22.14-6.61Q22.14-8.29 22.14-9.29L22.14-9.29Q22.14-10.37 22.14-12.13L22.14-12.13Q22.06-13.77 22.12-14.81 22.18-15.86 22.28-16.44 22.38-17.02 22.7-17.26 23.02-17.5 23.52-17.56 24.02-17.62 24.9-17.58L24.9-17.58Q25.71-17.54 26.19-17.54L26.19-17.54Q29.27-17.54 29.81-17.38 30.35-17.22 30.23-16.3L30.23-16.3Q30.19-15.7 30.67-15.44 31.15-15.17 31.99-15.33 32.83-15.5 33.63-16.02L33.63-16.02Q34.03-16.26 34.07-16.6 34.11-16.94 34.03-19.18L34.03-19.18Q33.83-24.5 33.91-26.35 33.99-28.19 34.51-28.63L34.51-28.63Q35.07-29.15 33.91-29.59L33.91-29.59Q33.15-29.91 31.27-30.43L31.27-30.43Q30.11-30.71 29.99-30.63 29.87-30.55 29.99-29.51L29.99-29.51Q30.27-27.03 30.33-23.32 30.39-19.62 30.15-19.22L30.15-19.22Q29.95-18.82 29.43-18.76 28.91-18.7 26.23-18.7L26.23-18.7Q25.75-18.7 24.94-18.7L24.94-18.7Q22.82-18.62 22.48-19.18 22.14-19.74 22.18-23.18L22.18-23.18Q22.18-24.54 22.18-25.38L22.18-25.38Q22.18-30.35 22.26-31.17 22.34-31.99 22.82-32.31L22.82-32.31Q23.58-32.79 21.74-33.43L21.74-33.43Q20.86-33.75 19.3-34.15L19.3-34.15Q18.22-34.43 18.1-34.33 17.98-34.23 18.1-33.27L18.1-33.27Q18.38-30.79 18.44-25.2 18.5-19.62 18.26-19.22L18.26-19.22Q18.06-18.82 17.56-18.76 17.06-18.7 14.49-18.7L14.49-18.7Q11.69-18.7 11.37-18.78L11.37-18.78Q10.65-19.02 10.57-20.3L10.57-20.3Q10.57-20.38 10.57-23.62L10.57-23.62Q10.57-26.99 10.67-27.67 10.77-28.35 11.21-28.63L11.21-28.63Q11.97-29.11 10.41-29.71L10.41-29.71Q9.57-29.99 7.85-30.47L7.85-30.47Q6.61-30.79 6.61-30.55L6.61-30.55Q6.61-30.51 6.61-30.43L6.61-30.43Q6.93-29.39 7.01-24.68 7.09-19.98 6.85-16.42L6.85-16.42Q6.77-15.46 7.15-15.21 7.53-14.97 8.73-15.21L8.73-15.21Q10.57-15.58 10.57-16.54L10.57-16.54Q10.57-17.14 11.05-17.42L11.05-17.42Q11.37-17.58 14.55-17.56 17.74-17.54 17.98-17.34L17.98-17.34Q18.34-17.1 18.4-16.14 18.46-15.17 18.46-9.29L18.46-9.29Q18.46-8.29 18.46-6.65L18.46-6.65Q18.5-2.64 18.08-1.96 17.66-1.28 15.25-1.36L15.25-1.36Q14.21-1.4 13.57-1.4L13.57-1.4Q12.97-1.4 12.01-1.4L12.01-1.4Q9.49-1.36 9.07-1.8 8.65-2.24 8.69-5.04L8.69-5.04Q8.69-6.09 8.69-6.73L8.69-6.73Q8.73-10.41 8.79-11.05 8.85-11.69 9.21-11.89L9.21-11.89Q10.25-12.41 7.93-13.17L7.93-13.17Q7.05-13.45 5.65-13.81L5.65-13.81Q4.8-14.01 4.72-13.95 4.64-13.89 4.72-13.09L4.72-13.09Q4.96-11.09 5.02-6.03 5.08-0.96 4.92 1.44L4.92 1.44Q4.84 2.6 4.9 2.88 4.96 3.16 5.41 3.32ZM53.47 3.44L53.47 3.44Q54.63 3.64 56.32 2.84L56.32 2.84Q57 2.52 57.08 2.24L57.08 2.24Q57.12 2.04 57.04-0.08L57.04-0.08Q56.76-6.01 56.86-11.69 56.96-17.38 57.36-17.5L57.36-17.5Q57.8-17.66 57.86-17.9 57.92-18.14 57.56-18.3L57.56-18.3Q56.96-18.54 57.14-19.02 57.32-19.5 58.56-21.02L58.56-21.02Q60.24-22.94 60.56-22.94L60.56-22.94Q62.08-22.94 59.2-24.82L59.2-24.82Q58.52-25.26 57.56-25.83L57.56-25.83Q56.72-26.31 56.58-26.29 56.44-26.27 56.24-25.67L56.24-25.67Q55.19-22.62 52.65-18.66 50.11-14.69 47.31-11.73L47.31-11.73Q46.83-11.17 46.77-11.05 46.71-10.93 46.87-10.77L46.87-10.77Q47.19-10.45 50.51-13.09L50.51-13.09Q51.75-14.13 52.11-14.31 52.47-14.49 52.75-14.41L52.75-14.41Q53.11-14.25 53.13-9.47 53.15-4.68 52.83 0.64L52.83 0.64Q52.71 2.2 52.71 2.68L52.71 2.68Q52.71 2.88 52.95 3.14 53.19 3.4 53.47 3.44ZM70.85 2.64L70.85 2.64Q70.85 2.72 70.89 2.88L70.89 2.88Q70.93 3.16 71.03 3.2 71.13 3.24 71.69 3.16L71.69 3.16Q71.93 3.12 72.09 3.08L72.09 3.08Q74.17 2.8 75.21 2.06 76.26 1.32 76.62-0.08L76.62-0.08Q76.78-0.68 76.8-5.49 76.82-10.29 76.84-14.83 76.86-19.38 77.02-19.58L77.02-19.58Q77.18-19.86 77.64-19.92 78.1-19.98 80.38-20.02L80.38-20.02Q82.78-20.06 83.24-20.12 83.7-20.18 83.86-20.5L83.86-20.5Q83.98-20.74 83.16-21.64 82.34-22.54 81.14-23.42L81.14-23.42Q80.26-24.06 80-24 79.74-23.94 78.98-22.86L78.98-22.86Q78.06-21.54 77.62-21.3L77.62-21.3Q77.34-21.14 70.25-21.14 63.16-21.14 61.68-21.3L61.68-21.3Q61.12-21.34 60.96-21.36 60.8-21.38 60.68-21.28 60.56-21.18 60.64-21.04 60.72-20.9 60.96-20.42L60.96-20.42Q61.32-19.66 61.54-19.6 61.76-19.54 62.92-19.7L62.92-19.7Q65.4-20.02 68.85-20.06 72.29-20.1 72.61-19.82 72.93-19.54 72.97-18.38 73.01-17.22 73.01-10.41L73.01-10.41Q73.01-9.33 73.01-7.53L73.01-7.53Q73.09-6.29 73.03-5.35 72.97-4.4 72.97-3.7 72.97-3 72.81-2.54 72.65-2.08 72.51-1.78 72.37-1.48 72.01-1.34 71.65-1.2 71.27-1.16 70.89-1.12 70.23-1.16 69.57-1.2 68.85-1.28L68.85-1.28Q67.73-1.4 67.05-1.44L67.05-1.44Q65.4-1.56 65.28-1.48L65.28-1.48Q64.96-1.2 65.77-1L65.77-1Q65.97-0.96 66.29-0.88L66.29-0.88Q68.57-0.44 69.61 0.38 70.65 1.2 70.85 2.64ZM47.71-22.62L47.71-22.62Q48.15-22.22 51.79-24.76 55.44-27.31 58.16-29.87L58.16-29.87Q59.48-31.19 60.2-31.35L60.2-31.35Q61.2-31.55 59.76-32.39L59.76-32.39Q57.68-33.75 57-34.23L57-34.23Q56.6-34.51 56.42-34.59 56.24-34.67 56.12-34.61 56-34.55 55.92-34.31L55.92-34.31Q53.99-29.59 48.67-24.06L48.67-24.06Q47.51-22.9 47.71-22.62ZM63.2-29.75L63.2-29.75Q63.52-29.07 63.66-28.99 63.8-28.91 64.52-29.03L64.52-29.03Q66.85-29.39 74.49-29.43L74.49-29.43Q80.02-29.47 81.06-29.53 82.1-29.59 82.26-29.91L82.26-29.91Q82.3-29.91 82.3-29.95L82.3-29.95Q82.58-30.51 80.22-32.39L80.22-32.39Q79.3-33.11 78.98-33.25 78.66-33.39 78.4-33.21 78.14-33.03 77.54-32.19L77.54-32.19Q76.74-31.07 76.46-30.91L76.46-30.91Q75.94-30.59 72.81-30.59L72.81-30.59Q71.53-30.59 71.17-30.59L71.17-30.59Q65.73-30.59 63.4-30.79L63.4-30.79Q62.84-30.83 62.82-30.71 62.8-30.59 63.2-29.75Z"
                                  transform="translate(-4.679999828338623, 34.63571548461914)"/>
                        </g>
                    </g>
                </g>
            </g>
        </g>
    </mask>
    <defs v-gra="od"/>
</svg>